<svg width="24" height="24" viewBox="0 0 24 24" fill="none" xmlns="http://www.w3.org/2000/svg">
<path d="M0.00149028 1.45683C0.00156041 1.07165 0.154601 0.702281 0.426951 0.429931C0.6993 0.157582 1.06866 0.00455852 1.45383 0.00448839L2.46745 0.00299811C3.18256 0.0421131 3.86286 0.324193 4.39586 0.802531L9.21994 5.62661C9.56422 5.97089 9.75764 6.43782 9.75764 6.92469C9.75764 7.41159 9.56424 7.87853 9.21996 8.2228L1.93592 15.5068C1.7777 15.6644 1.57638 15.7714 1.35735 15.8147C1.13831 15.858 0.911373 15.8356 0.705138 15.75C0.498886 15.6645 0.32258 15.5199 0.198433 15.3343C0.0742677 15.1488 0.00783715 14.9306 0.0074865 14.7073L0.00149028 1.45683ZM14.7133 23.3285C14.9368 23.3281 15.1551 23.2615 15.3407 23.1372C15.5264 23.0129 15.671 22.8361 15.7564 22.6298C15.8418 22.4233 15.864 22.196 15.8204 21.9769C15.7769 21.7579 15.6693 21.5565 15.5113 21.3985L8.22131 14.1084C7.87704 13.7641 7.41008 13.5707 6.9232 13.5707C6.43633 13.5707 5.96937 13.7641 5.6251 14.1084L0.799516 18.9339C0.321896 19.4675 0.0399565 20.1475 0 20.8625L0.00150783 21.8761C0.00156043 22.2613 0.154584 22.6307 0.426933 22.9029C0.699283 23.1752 1.06866 23.3283 1.45383 23.3285H14.7133ZM15.0741 9.22296C15.4189 9.56698 15.8861 9.76005 16.3734 9.75976C16.8604 9.75948 17.3275 9.56587 17.6718 9.22145L22.4959 4.39737C22.9735 3.86391 23.2556 3.18384 23.2955 2.46892L23.2954 1.45681C23.2952 1.0713 23.1419 0.701667 22.8693 0.429072C22.5967 0.156477 22.2271 0.00322603 21.8416 0.00299811L8.58812 0C8.36486 0.000350649 8.14671 0.0667987 7.96114 0.190946C7.77558 0.315094 7.63092 0.4914 7.54541 0.697652C7.45991 0.903887 7.43736 1.13084 7.48065 1.34988C7.52392 1.56891 7.63108 1.77022 7.78861 1.92843L15.0741 9.22296ZM18.8996 22.499C19.4328 22.9776 20.1139 23.2592 20.8294 23.2969H21.8416C22.2268 23.2969 22.5962 23.1438 22.8684 22.8716C23.1409 22.5991 23.294 22.2297 23.294 21.8447L23.2969 8.58814C23.2976 8.36443 23.2317 8.14555 23.1078 7.95932C22.9838 7.77311 22.8073 7.62796 22.6005 7.54228C22.3938 7.45659 22.1664 7.43424 21.9471 7.47811C21.7278 7.52197 21.5263 7.63006 21.3685 7.78862L14.0815 15.0756C13.7371 15.4201 13.5434 15.8872 13.5431 16.3742C13.5429 16.8613 13.736 17.3285 14.08 17.6734L18.8996 22.499Z" fill="#BBF451"/>
</svg>
